<?xml version="1.0" encoding="UTF-8" standalone="no"?>
<!DOCTYPE svg PUBLIC "-//W3C//DTD SVG 1.1//EN" "http://www.w3.org/Graphics/SVG/1.1/DTD/svg11.dtd">
<svg width="100%" height="100%" viewBox="0 0 215 47" version="1.1" xmlns="http://www.w3.org/2000/svg" xmlns:xlink="http://www.w3.org/1999/xlink" xml:space="preserve" xmlns:serif="http://www.serif.com/" style="fill-rule:evenodd;clip-rule:evenodd;stroke-linejoin:round;stroke-miterlimit:2;">
    <g id="Artboard2" transform="matrix(1.0804,0,0,1,0,0)">
        <rect x="0" y="0" width="199" height="47" style="fill:none;"/>
        <g id="Artboard1" transform="matrix(1.18833,0,0,1,0,0)">
            <rect x="0" y="0" width="155" height="47" style="fill:none;"/>
            <g transform="matrix(0.778894,0,0,1,0,0)">
                <g transform="matrix(0.999855,0,0,0.999855,62.7092,-0.928457)">
                    <g transform="matrix(62,0,0,62,0,47)">
                        <path d="M0.047,-0L0.047,-0.727L0.571,-0.727L0.571,-0.568L0.244,-0.568L0.244,-0.443L0.544,-0.443L0.544,-0.284L0.244,-0.284L0.244,-0.159L0.57,-0.159L0.57,-0L0.047,-0Z" style="fill:rgb(55,125,255);fill-rule:nonzero;"/>
                    </g>
                    <g transform="matrix(62,0,0,62,37.3339,47)">
                        <path d="M0.439,-0.5C0.437,-0.524 0.428,-0.542 0.412,-0.555C0.397,-0.569 0.373,-0.575 0.341,-0.575C0.321,-0.575 0.304,-0.573 0.291,-0.568C0.278,-0.563 0.269,-0.557 0.262,-0.548C0.256,-0.54 0.253,-0.531 0.253,-0.52C0.252,-0.511 0.254,-0.503 0.258,-0.496C0.261,-0.489 0.267,-0.483 0.275,-0.477C0.283,-0.472 0.294,-0.467 0.306,-0.462C0.319,-0.458 0.334,-0.454 0.351,-0.45L0.411,-0.438C0.451,-0.429 0.485,-0.418 0.514,-0.404C0.542,-0.39 0.566,-0.373 0.584,-0.355C0.602,-0.336 0.616,-0.315 0.624,-0.291C0.633,-0.268 0.638,-0.242 0.638,-0.214C0.638,-0.167 0.626,-0.126 0.602,-0.093C0.578,-0.06 0.544,-0.035 0.501,-0.017C0.457,-0 0.404,0.009 0.342,0.009C0.279,0.009 0.224,-0.001 0.177,-0.02C0.13,-0.038 0.094,-0.067 0.068,-0.106C0.042,-0.145 0.029,-0.195 0.028,-0.256L0.216,-0.256C0.217,-0.233 0.223,-0.215 0.233,-0.2C0.243,-0.184 0.257,-0.173 0.275,-0.165C0.293,-0.157 0.314,-0.153 0.339,-0.153C0.361,-0.153 0.378,-0.156 0.392,-0.161C0.407,-0.166 0.417,-0.174 0.425,-0.183C0.432,-0.192 0.436,-0.203 0.436,-0.214C0.436,-0.226 0.432,-0.235 0.425,-0.244C0.418,-0.252 0.407,-0.26 0.391,-0.267C0.375,-0.273 0.354,-0.28 0.327,-0.286L0.254,-0.301C0.19,-0.315 0.139,-0.338 0.102,-0.371C0.065,-0.404 0.047,-0.449 0.047,-0.506C0.047,-0.552 0.059,-0.592 0.084,-0.627C0.109,-0.662 0.144,-0.689 0.188,-0.708C0.232,-0.728 0.283,-0.737 0.341,-0.737C0.4,-0.737 0.45,-0.727 0.493,-0.708C0.536,-0.688 0.569,-0.66 0.593,-0.625C0.616,-0.589 0.628,-0.548 0.628,-0.5L0.439,-0.5Z" style="fill:rgb(55,125,255);fill-rule:nonzero;"/>
                    </g>
                    <g transform="matrix(62,0,0,62,77.3978,47)">
                        <path d="M0.047,-0L0.047,-0.727L0.362,-0.727C0.418,-0.727 0.464,-0.72 0.502,-0.705C0.54,-0.69 0.568,-0.669 0.588,-0.642C0.607,-0.614 0.616,-0.582 0.616,-0.545C0.616,-0.519 0.611,-0.494 0.599,-0.472C0.587,-0.45 0.571,-0.432 0.55,-0.417C0.529,-0.402 0.504,-0.392 0.476,-0.386L0.476,-0.379C0.507,-0.378 0.536,-0.37 0.561,-0.356C0.587,-0.341 0.607,-0.321 0.622,-0.296C0.637,-0.27 0.645,-0.24 0.645,-0.206C0.645,-0.166 0.635,-0.131 0.614,-0.1C0.593,-0.069 0.564,-0.044 0.526,-0.027C0.487,-0.009 0.442,-0 0.389,-0L0.047,-0ZM0.244,-0.158L0.337,-0.158C0.37,-0.158 0.395,-0.164 0.411,-0.176C0.428,-0.189 0.436,-0.207 0.436,-0.232C0.436,-0.249 0.432,-0.263 0.424,-0.275C0.417,-0.287 0.405,-0.296 0.391,-0.302C0.377,-0.308 0.36,-0.311 0.339,-0.311L0.244,-0.311L0.244,-0.158ZM0.244,-0.433L0.325,-0.433C0.343,-0.433 0.358,-0.436 0.371,-0.441C0.384,-0.447 0.395,-0.455 0.402,-0.465C0.41,-0.475 0.413,-0.488 0.413,-0.503C0.413,-0.525 0.405,-0.543 0.389,-0.555C0.373,-0.566 0.353,-0.572 0.328,-0.572L0.244,-0.572L0.244,-0.433Z" style="fill:rgb(55,125,255);fill-rule:nonzero;"/>
                    </g>
                    <g transform="matrix(62,0,0,62,117.55,47)">
                        <path d="M0.047,-0L0.047,-0.727L0.244,-0.727L0.244,-0.159L0.538,-0.159L0.538,-0L0.047,-0Z" style="fill:rgb(55,125,255);fill-rule:nonzero;"/>
                    </g>
                </g>
                <g transform="matrix(1,0,0,1,-1.00001,6.10465e-05)">
                    <g transform="matrix(2.23412,0,0,2.23412,-2.46823,-3.46135)">
                        <path d="M17.2,9.105C17.067,8.875 17.032,8.602 17.1,8.346C17.169,8.09 17.336,7.872 17.566,7.739L18.566,7.163C18.45,6.932 18.429,6.664 18.507,6.417C18.585,6.17 18.756,5.963 18.984,5.841C19.212,5.718 19.479,5.689 19.728,5.76C19.977,5.831 20.189,5.997 20.318,6.221L21.278,7.883C21.4,8.11 21.429,8.376 21.359,8.624C21.29,8.872 21.127,9.084 20.905,9.216C20.683,9.347 20.419,9.387 20.168,9.328C19.917,9.27 19.699,9.116 19.558,8.9L18.568,9.471C18.416,9.559 18.244,9.605 18.068,9.605C17.892,9.605 17.719,9.559 17.567,9.472C17.415,9.384 17.288,9.257 17.2,9.105ZM20.89,14.924C20.67,14.798 20.41,14.762 20.163,14.821C19.917,14.881 19.702,15.033 19.564,15.245L18.564,14.669C18.45,14.602 18.324,14.559 18.194,14.541C18.063,14.523 17.93,14.531 17.803,14.565C17.675,14.599 17.556,14.657 17.451,14.737C17.346,14.818 17.258,14.918 17.192,15.032C17.126,15.146 17.084,15.272 17.067,15.403C17.05,15.534 17.059,15.666 17.093,15.794C17.128,15.921 17.187,16.04 17.268,16.144C17.349,16.249 17.449,16.336 17.564,16.401L18.555,16.973C18.443,17.202 18.422,17.466 18.498,17.709C18.574,17.953 18.74,18.159 18.962,18.284C19.184,18.409 19.446,18.445 19.693,18.384C19.941,18.322 20.156,18.169 20.294,17.954L21.254,16.291C21.388,16.062 21.425,15.79 21.357,15.533C21.29,15.277 21.124,15.058 20.895,14.924L20.89,14.924ZM5.442,14.739L4.576,15.239C4.442,15.011 4.224,14.846 3.969,14.778C3.714,14.711 3.442,14.747 3.213,14.879C2.985,15.011 2.817,15.228 2.748,15.483C2.679,15.738 2.713,16.009 2.844,16.239L3.844,17.971C3.909,18.086 3.996,18.186 4.101,18.267C4.205,18.348 4.324,18.407 4.451,18.442C4.579,18.476 4.711,18.485 4.842,18.469C4.973,18.452 5.099,18.409 5.213,18.343C5.328,18.277 5.428,18.189 5.508,18.084C5.588,17.98 5.646,17.86 5.68,17.732C5.714,17.605 5.722,17.472 5.704,17.341C5.686,17.211 5.643,17.085 5.576,16.971L6.442,16.471C6.67,16.337 6.836,16.119 6.903,15.864C6.971,15.609 6.934,15.337 6.802,15.108C6.67,14.88 6.453,14.713 6.198,14.643C5.943,14.574 5.672,14.608 5.442,14.739ZM6.442,7.669L5.576,7.169C5.643,7.055 5.686,6.929 5.704,6.799C5.722,6.668 5.714,6.535 5.68,6.408C5.646,6.28 5.588,6.161 5.508,6.056C5.428,5.951 5.328,5.863 5.213,5.797C5.099,5.731 4.973,5.689 4.842,5.672C4.711,5.655 4.579,5.664 4.451,5.698C4.324,5.733 4.205,5.792 4.101,5.873C3.996,5.954 3.909,6.054 3.844,6.169L2.844,7.901C2.777,8.015 2.734,8.141 2.716,8.271C2.698,8.402 2.706,8.535 2.74,8.662C2.774,8.79 2.832,8.91 2.912,9.014C2.992,9.119 3.092,9.207 3.207,9.273C3.321,9.339 3.447,9.381 3.578,9.398C3.709,9.415 3.841,9.406 3.969,9.372C4.096,9.337 4.215,9.278 4.319,9.197C4.424,9.116 4.511,9.016 4.576,8.901L5.442,9.401C5.672,9.532 5.943,9.566 6.198,9.497C6.453,9.428 6.67,9.26 6.802,9.032C6.934,8.803 6.971,8.531 6.903,8.276C6.836,8.021 6.67,7.803 6.442,7.669ZM13.065,20.14L13.065,19.14C13.065,18.875 12.96,18.621 12.772,18.433C12.585,18.245 12.33,18.14 12.065,18.14C11.8,18.14 11.545,18.245 11.358,18.433C11.17,18.621 11.065,18.875 11.065,19.14L11.065,20.14C10.8,20.14 10.545,20.245 10.358,20.433C10.17,20.621 10.065,20.875 10.065,21.14C10.065,21.405 10.17,21.66 10.358,21.847C10.545,22.035 10.8,22.14 11.065,22.14L13.065,22.14C13.33,22.14 13.585,22.035 13.772,21.847C13.96,21.66 14.065,21.405 14.065,21.14C14.065,20.875 13.96,20.621 13.772,20.433C13.585,20.245 13.33,20.14 13.065,20.14ZM11.065,3.984L11.065,5.14C11.065,5.405 11.17,5.66 11.358,5.847C11.545,6.035 11.8,6.14 12.065,6.14C12.33,6.14 12.585,6.035 12.772,5.847C12.96,5.66 13.065,5.405 13.065,5.14L13.065,3.996C13.33,3.993 13.584,3.885 13.769,3.696C13.955,3.507 14.058,3.251 14.055,2.986C14.052,2.721 13.945,2.468 13.755,2.282C13.566,2.096 13.31,1.993 13.045,1.996L11.125,1.996C10.867,1.997 10.619,2.098 10.434,2.278C10.249,2.458 10.141,2.703 10.133,2.961C10.126,3.219 10.219,3.47 10.392,3.661C10.566,3.852 10.807,3.968 11.065,3.984Z" style="fill:rgb(55,125,255);fill-opacity:0.3;fill-rule:nonzero;"/>
                    </g>
                    <g transform="matrix(2.23412,0,0,2.23412,-2.46823,-3.46135)">
                        <path d="M15.105,17.327C15.305,17.213 15.539,17.173 15.766,17.214C15.993,17.255 16.198,17.374 16.346,17.551C17.751,16.438 18.674,14.826 18.923,13.051C18.673,13.035 18.438,12.924 18.267,12.742C18.095,12.559 18,12.318 18,12.067C18,11.816 18.095,11.575 18.267,11.392C18.438,11.21 18.673,11.099 18.923,11.083C18.674,9.319 17.761,7.717 16.371,6.604C16.231,6.819 16.014,6.972 15.764,7.031C15.514,7.09 15.251,7.05 15.03,6.919C14.809,6.789 14.647,6.578 14.578,6.331C14.509,6.084 14.538,5.819 14.659,5.593C12.997,4.906 11.133,4.891 9.459,5.549L9.469,5.565C9.602,5.795 9.637,6.068 9.569,6.324C9.5,6.58 9.332,6.799 9.103,6.931C8.873,7.064 8.6,7.1 8.343,7.031C8.087,6.963 7.869,6.795 7.736,6.565L7.719,6.535C6.279,7.648 5.33,9.28 5.074,11.083C5.324,11.099 5.559,11.21 5.73,11.392C5.902,11.575 5.997,11.816 5.997,12.067C5.997,12.318 5.902,12.559 5.73,12.742C5.559,12.924 5.324,13.035 5.074,13.051C5.33,14.861 6.286,16.498 7.735,17.611C7.875,17.411 8.085,17.27 8.324,17.216C8.562,17.163 8.812,17.2 9.025,17.321C9.237,17.441 9.397,17.637 9.473,17.869C9.549,18.102 9.535,18.354 9.435,18.577C11.123,19.246 13.006,19.23 14.682,18.531C14.599,18.313 14.595,18.072 14.673,17.852C14.75,17.631 14.903,17.445 15.105,17.327ZM7,12.07C7,11.081 7.293,10.114 7.843,9.292C8.392,8.47 9.173,7.829 10.087,7.451C11,7.072 12.006,6.973 12.976,7.166C13.945,7.359 14.836,7.835 15.536,8.534C16.235,9.234 16.711,10.125 16.904,11.095C17.097,12.064 16.998,13.07 16.619,13.983C16.241,14.897 15.6,15.678 14.778,16.227C13.956,16.777 12.989,17.07 12,17.07C10.674,17.07 9.402,16.543 8.464,15.605C7.527,14.668 7,13.396 7,12.07Z" style="fill:rgb(55,125,255);fill-rule:nonzero;"/>
                    </g>
                    <g transform="matrix(2.23412,0,0,2.23412,-2.46823,-3.46135)">
                        <path d="M18.337,18.924C18.403,19.038 18.446,19.164 18.463,19.294C18.48,19.424 18.471,19.556 18.437,19.683C18.403,19.81 18.345,19.929 18.265,20.034C18.185,20.138 18.085,20.225 17.971,20.291L16.241,21.291C16.127,21.357 16.002,21.399 15.871,21.416C15.741,21.433 15.609,21.424 15.482,21.39C15.355,21.356 15.236,21.298 15.132,21.218C15.028,21.138 14.941,21.038 14.875,20.924C14.742,20.694 14.707,20.421 14.775,20.165C14.844,19.909 15.011,19.691 15.241,19.558L14.741,18.693C14.675,18.579 14.633,18.454 14.616,18.323C14.599,18.193 14.607,18.061 14.641,17.934C14.71,17.678 14.878,17.459 15.108,17.327C15.337,17.194 15.61,17.158 15.867,17.227C16.123,17.296 16.341,17.463 16.474,17.693L16.974,18.558C17.203,18.426 17.476,18.391 17.731,18.459C17.987,18.528 18.204,18.695 18.337,18.924ZM8.9,4.578C9.112,4.436 9.262,4.218 9.319,3.969C9.375,3.72 9.334,3.458 9.204,3.238C9.074,3.019 8.865,2.857 8.62,2.786C8.374,2.716 8.111,2.742 7.884,2.859L6.221,3.819C6.011,3.956 5.861,4.167 5.799,4.409C5.737,4.652 5.768,4.909 5.887,5.13C6.006,5.351 6.203,5.519 6.44,5.601C6.676,5.683 6.935,5.674 7.165,5.574L7.739,6.568C7.872,6.798 8.09,6.965 8.346,7.034C8.603,7.103 8.876,7.067 9.105,6.935C9.335,6.802 9.503,6.583 9.572,6.327C9.64,6.071 9.605,5.798 9.472,5.568L8.9,4.578ZM9.035,17.327C8.805,17.194 8.532,17.159 8.276,17.227C8.02,17.296 7.802,17.463 7.669,17.693L7.169,18.558C6.939,18.425 6.666,18.39 6.41,18.458C6.154,18.527 5.935,18.695 5.802,18.924C5.67,19.154 5.634,19.427 5.703,19.684C5.771,19.94 5.939,20.158 6.169,20.291L7.901,21.291C8.015,21.357 8.14,21.399 8.271,21.416C8.401,21.434 8.533,21.425 8.66,21.391C8.787,21.357 8.906,21.298 9.01,21.218C9.114,21.138 9.202,21.038 9.267,20.924C9.333,20.811 9.376,20.685 9.393,20.555C9.41,20.425 9.401,20.292 9.367,20.165C9.333,20.038 9.275,19.919 9.195,19.815C9.115,19.711 9.015,19.624 8.901,19.558L9.401,18.693C9.534,18.463 9.57,18.19 9.501,17.934C9.432,17.678 9.265,17.46 9.035,17.327ZM15.035,6.934C15.265,7.067 15.538,7.103 15.794,7.034C16.05,6.965 16.268,6.798 16.401,6.568L16.973,5.579C17.203,5.694 17.467,5.716 17.713,5.641C17.958,5.565 18.165,5.399 18.291,5.175C18.417,4.952 18.452,4.689 18.39,4.44C18.327,4.191 18.171,3.976 17.954,3.839L16.291,2.879C16.067,2.753 15.803,2.718 15.555,2.782C15.306,2.846 15.091,3.004 14.956,3.222C14.821,3.441 14.776,3.703 14.829,3.954C14.883,4.205 15.032,4.426 15.245,4.57L14.669,5.57C14.537,5.8 14.502,6.072 14.57,6.328C14.639,6.583 14.806,6.801 15.035,6.934ZM6,12.07C6,11.805 5.895,11.55 5.707,11.363C5.52,11.175 5.265,11.07 5,11.07L4,11.07C4,10.805 3.895,10.55 3.707,10.363C3.52,10.175 3.265,10.07 3,10.07C2.735,10.07 2.48,10.175 2.293,10.363C2.105,10.55 2,10.805 2,11.07L2,13.07C2,13.335 2.105,13.59 2.293,13.777C2.48,13.965 2.735,14.07 3,14.07C3.265,14.07 3.52,13.965 3.707,13.777C3.895,13.59 4,13.335 4,13.07L5,13.07C5.265,13.07 5.52,12.965 5.707,12.777C5.895,12.59 6,12.335 6,12.07ZM21.14,10.13C20.886,10.131 20.643,10.228 20.459,10.403C20.275,10.578 20.165,10.817 20.152,11.07L19,11.07C18.735,11.07 18.48,11.175 18.293,11.363C18.105,11.55 18,11.805 18,12.07C18,12.335 18.105,12.59 18.293,12.777C18.48,12.965 18.735,13.07 19,13.07L20.144,13.07C20.145,13.201 20.173,13.331 20.224,13.452C20.275,13.573 20.35,13.682 20.444,13.774C20.538,13.866 20.649,13.939 20.771,13.988C20.892,14.037 21.023,14.061 21.154,14.06C21.285,14.059 21.415,14.032 21.536,13.98C21.657,13.929 21.766,13.854 21.858,13.76C21.95,13.666 22.023,13.555 22.072,13.433C22.121,13.312 22.145,13.181 22.144,13.05L22.144,11.13C22.144,10.998 22.118,10.868 22.068,10.746C22.017,10.625 21.943,10.514 21.85,10.421C21.756,10.329 21.646,10.255 21.524,10.205C21.402,10.155 21.272,10.13 21.14,10.13ZM14.121,14.191C14.541,13.771 14.826,13.237 14.942,12.655C15.058,12.073 14.999,11.47 14.772,10.922C14.545,10.373 14.16,9.905 13.667,9.575C13.173,9.245 12.593,9.069 12,9.069C11.407,9.069 10.827,9.245 10.333,9.575C9.84,9.905 9.455,10.373 9.228,10.922C9.001,11.47 8.942,12.073 9.058,12.655C9.174,13.237 9.459,13.771 9.879,14.191C10.068,14.373 10.32,14.474 10.582,14.472C10.845,14.47 11.095,14.364 11.281,14.179C11.466,13.993 11.571,13.743 11.574,13.48C11.576,13.218 11.475,12.966 11.293,12.777C11.153,12.637 11.058,12.459 11.019,12.265C10.981,12.071 11,11.87 11.076,11.687C11.152,11.504 11.28,11.348 11.444,11.238C11.609,11.128 11.802,11.07 12,11.07C12.198,11.07 12.391,11.128 12.556,11.238C12.72,11.348 12.848,11.504 12.924,11.687C13,11.87 13.019,12.071 12.981,12.265C12.942,12.459 12.847,12.637 12.707,12.777C12.612,12.869 12.535,12.98 12.483,13.102C12.431,13.224 12.403,13.355 12.402,13.488C12.401,13.62 12.426,13.752 12.476,13.875C12.526,13.998 12.601,14.11 12.695,14.203C12.789,14.297 12.9,14.371 13.023,14.422C13.146,14.472 13.278,14.497 13.41,14.496C13.543,14.495 13.674,14.467 13.796,14.415C13.918,14.363 14.029,14.287 14.121,14.191Z" style="fill:rgb(55,125,255);fill-opacity:0.3;fill-rule:nonzero;"/>
                    </g>
                </g>
            </g>
        </g>
    </g>
</svg>
