<?xml version="1.0" encoding="UTF-8" standalone="no"?>
<!DOCTYPE svg PUBLIC "-//W3C//DTD SVG 1.1//EN" "http://www.w3.org/Graphics/SVG/1.1/DTD/svg11.dtd">
<svg width="100%" height="100%" viewBox="0 0 9556 5965" version="1.1" xmlns="http://www.w3.org/2000/svg" xmlns:xlink="http://www.w3.org/1999/xlink" xml:space="preserve" xmlns:serif="http://www.serif.com/" style="fill-rule:evenodd;clip-rule:evenodd;stroke-linejoin:round;stroke-miterlimit:2;">
    <path d="M9555.12,231.496C9555.12,103.73 9451.39,0 9323.62,0L231.496,0C103.73,0 0,103.73 0,231.496L0,5733.07C0,5860.84 103.73,5964.57 231.496,5964.57L9323.62,5964.57C9451.39,5964.57 9555.12,5860.84 9555.12,5733.07L9555.12,231.496Z" style="fill:url(#_Radial1);"/>
    <g transform="matrix(8.33596,0,0,8.33596,1439.37,520.366)">
        <rect x="64" y="260.727" width="384" height="225.273" style="fill:rgb(66,91,149);"/>
        <path d="M256,19.27L25.637,249.638L19.27,256L64,260.727L448,260.727L492.73,256L486.363,249.637L256,19.27ZM96,48L96,179.273L160,115.272L160,48L96,48ZM448,260.727L64,260.727L64,486L128,486L128,320L224,320L224,486L448,486L448,260.727ZM288,320L384,320L384,400L288,400L288,320Z" style="fill:rgb(33,50,91);fill-rule:nonzero;"/>
    </g>
    <g transform="matrix(4.46847,0,0,4.33012,3015.11,-2705.23)">
        <path d="M951.735,1341.84C925.18,1279.76 900.114,1224.93 909.156,1155.59C915.9,1103.87 962.564,994.233 909.485,955.918C875.693,931.525 822.134,940.651 797.322,974.113C785.87,989.557 779,1009.06 773.397,1027.3C739.03,1139.17 818.143,1206.42 804.203,1304.87C796.571,1358.78 757.552,1395.11 727.732,1437.42C676.817,1509.65 628.654,1619.48 667.733,1705.34C690.477,1755.31 731.589,1771.59 783.419,1780.97C860.515,1794.92 950.481,1783.43 992.147,1706.79C1056.93,1587.62 996.248,1432.12 941.457,1320.53" style="fill:url(#_Radial2);"/>
        <path d="M957.227,1339.6L957.14,1339.38C931.042,1278.37 906.125,1224.55 915.011,1156.4C919.071,1125.26 937.508,1073.2 940.139,1028.23C942.022,996.031 935.75,967.437 912.871,950.922C876.646,924.773 819.229,934.537 792.63,970.408C780.768,986.404 773.569,1006.56 767.765,1025.46C750.135,1082.85 761.431,1128.8 775.528,1173.02C788.986,1215.24 805.184,1255.77 798.357,1303.99C794.681,1329.95 783.366,1351.65 769.461,1371.98C755.041,1393.07 737.848,1412.7 722.955,1433.83C691.932,1477.85 661.977,1535.63 651.499,1593.63C644.389,1632.98 646.228,1672.43 662.386,1707.93C686.03,1759.88 728.515,1777.22 782.399,1786.97C861.867,1801.36 954.352,1788.77 997.3,1709.77C1030.4,1648.89 1031.65,1578.75 1017.42,1509.55C1005.16,1449.92 981.435,1391.02 957.227,1339.6ZM935.671,1319.31C913.191,1265.96 895.333,1215.88 903.301,1154.77C907.333,1123.85 925.732,1072.15 928.344,1027.49C929.957,999.93 925.685,975.052 906.099,960.914C874.739,938.277 825.04,946.765 802.014,977.818C790.971,992.709 784.432,1011.55 779.028,1029.14C762.292,1083.62 773.369,1127.23 786.752,1169.21C800.774,1213.2 817.162,1255.52 810.049,1305.76C802.274,1360.67 762.888,1397.91 732.51,1441.01C702.434,1483.67 673.273,1539.64 663.115,1595.86C656.468,1632.66 657.975,1669.56 673.08,1702.75C694.923,1750.74 734.663,1765.95 784.44,1774.96C859.165,1788.49 946.61,1778.09 986.995,1703.81C1018.68,1645.52 1019.48,1578.33 1005.86,1512.08C992.05,1444.89 963.37,1378.65 936.187,1323.29C935.56,1322.01 935.41,1320.61 935.671,1319.31Z" style="fill:rgb(33,50,91);"/>
        <path d="M776.225,1370.58C775.726,1362.99 771.172,1358.43 764.225,1356.34C752.744,1352.89 733.188,1357.73 726.053,1361.3C690.808,1378.92 675.229,1411.2 653.073,1444.43C643.716,1458.47 631.357,1464.57 618.263,1468.87C603.713,1473.63 588.276,1476.32 574.258,1483.33C561.542,1489.69 553.244,1499.8 546.066,1510.59C539.677,1520.19 534.263,1530.34 526.588,1538.01C523.381,1541.22 517.67,1550.51 514.593,1557.75C512.987,1561.53 512.142,1564.9 512.142,1566.94C512.142,1570.31 514.789,1573.04 518.05,1573.04C521.311,1573.04 523.958,1570.31 523.958,1566.94C523.958,1565.48 525.22,1562.9 526.606,1560.03C529.128,1554.79 532.625,1548.95 534.811,1546.77C543.032,1538.55 548.962,1527.77 555.806,1517.49C561.861,1508.39 568.683,1499.66 579.41,1494.3C592.915,1487.55 607.823,1485.08 621.841,1480.49C637.316,1475.41 651.748,1467.93 662.807,1451.35C683.743,1419.94 697.903,1388.92 731.205,1372.27C736.069,1369.84 748.178,1366.55 757.288,1367.39C759.229,1367.57 761.013,1367.92 762.458,1368.64C763.549,1369.19 764.346,1370.03 764.436,1371.4C764.657,1374.76 767.477,1377.3 770.731,1377.08C773.984,1376.85 776.446,1373.94 776.225,1370.58Z" style="fill:rgb(33,50,91);"/>
        <path d="M952.553,1338.36C953.374,1338.08 954.68,1337.67 955.668,1337.5C960.091,1336.73 965.091,1336.65 966.938,1336.34C986.157,1333.14 1000.87,1340.94 1013.23,1353.3C1021.57,1361.64 1027.5,1380.15 1033.19,1397.97C1036.87,1409.48 1040.35,1420.76 1043.95,1429.38C1046.7,1435.94 1049.65,1441.07 1052.66,1444.08C1061.32,1452.74 1074.87,1459.83 1087.79,1467.61C1099.24,1474.51 1110.28,1481.88 1115.52,1492.35C1133.44,1528.19 1148.62,1569.73 1166.12,1604.71C1167.61,1607.7 1171.18,1608.88 1174.08,1607.34C1176.97,1605.79 1178.11,1602.11 1176.62,1599.12C1159.12,1564.14 1143.94,1522.6 1126.02,1486.76C1119.84,1474.41 1107.25,1465.22 1093.74,1457.08C1081.7,1449.82 1068.96,1443.4 1060.89,1435.33C1058.7,1433.14 1056.79,1429.3 1054.8,1424.55C1051.31,1416.21 1047.97,1405.28 1044.41,1394.15C1038.05,1374.24 1030.77,1353.87 1021.45,1344.55C1006.43,1329.52 988.416,1320.41 965.054,1324.3C962.235,1324.77 952.709,1324.95 947.57,1327.19C942.57,1329.37 940.323,1333.17 940.999,1337.73C941.492,1341.06 944.509,1343.34 947.732,1342.83C950.131,1342.46 951.972,1340.63 952.553,1338.36Z" style="fill:rgb(33,50,91);"/>
        <path d="M710.12,1739.98C704.194,1739.08 699.768,1741.51 696.625,1746.69C694.48,1750.22 693.003,1755.45 692.235,1761.83C690.115,1779.43 692.963,1806.94 693.207,1825.24C693.292,1831.63 693.333,1836.68 692.127,1839.09C691.226,1840.9 690.088,1843.38 688.698,1845.65C687.843,1847.05 687.022,1848.48 685.872,1849.05C681.555,1851.21 674.101,1852.69 665.295,1853.88C643.162,1856.85 612.954,1857.37 598.412,1857.37C595.152,1857.37 592.505,1860.1 592.505,1863.47C592.505,1866.83 595.152,1869.56 598.412,1869.56C613.286,1869.56 644.183,1869.01 666.821,1865.97C677.203,1864.57 685.935,1862.57 691.024,1860.03C693.412,1858.83 695.669,1856.62 697.569,1853.88C699.655,1850.88 701.362,1847.21 702.627,1844.68C704.342,1841.26 705.142,1834.16 705.021,1825.07C704.784,1807.25 701.896,1780.47 703.96,1763.34C704.388,1759.78 705.009,1756.7 706.028,1754.36C706.606,1753.03 707.118,1751.85 708.396,1752.04C711.622,1752.53 714.627,1750.23 715.103,1746.9C715.579,1743.57 713.346,1740.47 710.12,1739.98Z" style="fill:rgb(33,50,91);"/>
        <path d="M953.406,1747.92C952.216,1744.8 948.797,1743.26 945.766,1744.48C945.415,1744.62 940.212,1747.73 942.702,1753.1C943.464,1754.74 947.785,1762.84 948.504,1765C951.874,1775.11 954.135,1789.33 954.135,1800.22C954.135,1822.72 954.167,1839.52 957.01,1851.82C959.191,1861.26 962.988,1868.31 969.134,1873.54C978.502,1881.5 994.067,1885.19 1020.32,1885.19C1023.58,1885.19 1026.22,1882.46 1026.22,1879.09C1026.22,1875.73 1023.58,1873 1020.32,1873C998.027,1873 984.603,1870.89 976.649,1864.13C971.191,1859.49 968.776,1852.6 967.442,1843.17C965.885,1832.19 965.951,1818.08 965.951,1800.22C965.951,1788.1 963.427,1772.28 959.677,1761.03C958.926,1758.78 953.953,1749 953.406,1747.92ZM953.787,1750.77C953.571,1752.97 952.192,1754.98 950.054,1755.84C951.646,1755.2 953.518,1753.89 953.787,1750.77Z" style="fill:rgb(33,50,91);"/>
        <path d="M814.959,1031.86C815.362,1032.46 815.836,1033.22 816.187,1033.92C817.454,1036.45 818,1039.28 818.803,1041.96C818.789,1041.91 818.708,1041.63 818.708,1041.63C818.708,1041.63 820.24,1053.06 820.727,1055.04C821.875,1059.72 825.876,1060.01 826.595,1060.01C829.856,1060.01 832.503,1057.27 832.503,1053.91C832.503,1053.17 832.378,1052.47 832.148,1051.82C831.897,1050.1 830.275,1038.97 830.09,1038.35C829.085,1035 828.274,1031.5 826.688,1028.33C822.777,1020.51 818.406,1018.62 814.861,1018.79C812.948,1018.88 810.931,1019.58 808.862,1021.07C806.257,1022.94 803.238,1026.56 799.429,1030.91C795.814,1035.04 793.484,1039.61 791.172,1043.96C789.603,1046.91 790.65,1050.62 793.508,1052.24C796.366,1053.86 799.961,1052.78 801.53,1049.83C803.423,1046.27 805.239,1042.46 808.199,1039.08C810.544,1036.4 813.469,1033.37 814.959,1031.86Z" style="fill:rgb(33,50,91);"/>
        <path d="M882.313,1028.07C884,1033.62 887.052,1043.6 887.711,1045.36C888.039,1046.24 890.729,1050.41 892.046,1052.44L892.041,1052.62C892.041,1055.98 894.689,1058.71 897.949,1058.71C900.241,1058.71 901.704,1057.73 902.711,1056.59C903.861,1055.29 904.826,1053.25 904.17,1050.38C903.943,1049.39 903.331,1047.92 902.386,1046.35C901.291,1044.52 899.068,1041.29 898.621,1040.64C897.626,1037.72 894.516,1025.98 892.607,1020.92C891.895,1019.03 891.149,1017.73 890.677,1017.13C889.92,1016.17 889.123,1015.64 888.49,1015.32C883.097,1012.63 878.552,1014.26 874.804,1018.3C871.671,1021.68 869.296,1027.46 867.5,1030.61C866.111,1033.04 863.776,1035.38 862.167,1037.96C860.411,1040.77 859.322,1043.8 859.391,1047.08C859.461,1050.44 862.165,1053.12 865.425,1053.04C868.685,1052.97 871.274,1050.18 871.204,1046.82C871.169,1045.12 872.517,1043.86 873.586,1042.48C875.064,1040.56 876.598,1038.69 877.678,1036.8C878.753,1034.92 880.007,1031.95 881.559,1029.28C881.802,1028.86 882.052,1028.45 882.313,1028.07ZM896.094,1046.83L896.075,1046.84L896.135,1046.82L896.094,1046.83ZM897.321,1046.56C896.93,1046.6 896.572,1046.67 896.243,1046.78C896.59,1046.67 896.95,1046.6 897.321,1046.56ZM897.535,1046.54L897.382,1046.55L897.605,1046.53L897.535,1046.54Z" style="fill:rgb(33,50,91);"/>
        <path d="M838.916,1114.09L837.361,1111.73C834.087,1100.44 825.417,1084.99 815.068,1078.97C812.227,1077.32 808.621,1078.36 807.022,1081.3C805.422,1084.23 806.431,1087.95 809.272,1089.6C817.314,1094.27 823.591,1106.64 826.087,1115.38C826.657,1117.38 830.736,1124.2 833.44,1126.31C836.263,1128.5 838.995,1128.2 840.777,1127.31C844.872,1125.26 848.962,1121.41 852.801,1116.85C857.638,1111.09 862.153,1104.17 866.151,1099.77C867.551,1098.24 876.572,1090.64 878.277,1089.2C880.423,1088.29 881.935,1086.11 881.935,1083.57C881.935,1081.99 881.415,1080.79 880.733,1079.86C879.936,1078.77 878.827,1077.92 877.255,1077.57C876.579,1077.41 874.911,1077.11 872.809,1078.32C870.601,1079.59 859.428,1089.35 857.534,1091.43C854.083,1095.23 850.24,1100.82 846.16,1106.03C843.801,1109.04 841.404,1111.97 838.916,1114.09ZM870.129,1083.9C870.199,1085.52 870.792,1086.73 871.638,1087.64C870.761,1086.64 870.203,1085.34 870.129,1083.9Z" style="fill:rgb(33,50,91);"/>
        <path d="M741.315,1467.09C721.674,1477.02 709.122,1494.99 698.09,1514.43C687.582,1532.96 678.468,1552.82 665.136,1567.5C652.592,1581.31 633.998,1595.18 614.093,1593.39C612.022,1593.2 610.195,1594.79 610.014,1596.92C609.834,1599.06 611.368,1600.95 613.439,1601.13C635.641,1603.13 656.642,1588.22 670.633,1572.82C684.33,1557.73 693.795,1537.39 704.591,1518.36C714.863,1500.25 726.34,1483.32 744.628,1474.07C746.495,1473.13 747.268,1470.8 746.354,1468.87C745.44,1466.94 743.182,1466.15 741.315,1467.09Z" style="fill:rgb(33,50,91);"/>
        <path d="M764.919,1523.75C749.375,1537.92 745.786,1558 743.477,1578.79C741.348,1597.95 740.356,1617.73 729.792,1633.04C728.587,1634.79 728.983,1637.22 730.676,1638.46C732.37,1639.71 734.723,1639.3 735.929,1637.55C747.219,1621.18 748.685,1600.16 750.96,1579.68C753.054,1560.83 755.815,1542.42 769.907,1529.57C771.465,1528.15 771.612,1525.69 770.235,1524.09C768.858,1522.48 766.476,1522.33 764.919,1523.75Z" style="fill:rgb(33,50,91);"/>
        <path d="M754.639,1615.97C761.521,1627.01 757.701,1639.53 754.462,1652.15C750.667,1666.94 747.445,1681.83 756.13,1695.23C757.285,1697.02 759.626,1697.5 761.354,1696.31C763.082,1695.11 763.547,1692.7 762.392,1690.91C754.984,1679.48 758.507,1666.76 761.744,1654.14C765.537,1639.36 769.036,1624.7 760.974,1611.77C759.85,1609.96 757.518,1609.44 755.769,1610.6C754.021,1611.76 753.515,1614.17 754.639,1615.97Z" style="fill:rgb(33,50,91);"/>
        <path d="M829.3,1538.86C824.222,1545.55 824.187,1552.37 826.211,1559.2C827.915,1564.96 831.231,1570.73 833.488,1576.35C836.464,1583.77 839.91,1602.95 838.957,1619.06C838.651,1624.24 837.895,1629.09 836.458,1633.07C835.246,1636.43 833.598,1639.16 831.132,1640.63C829.332,1641.71 828.716,1644.09 829.756,1645.94C830.795,1647.8 833.101,1648.44 834.901,1647.36C840.451,1644.06 843.946,1636.98 845.516,1628.04C848.774,1609.48 844.21,1582.76 840.447,1573.38C838.28,1567.98 835.051,1562.46 833.415,1556.93C832.097,1552.48 831.922,1548.01 835.229,1543.65C836.511,1541.97 836.223,1539.52 834.587,1538.2C832.951,1536.87 830.582,1537.17 829.3,1538.86Z" style="fill:rgb(33,50,91);"/>
        <path d="M862.92,1512.95C872.529,1514.1 878.212,1516.68 881.346,1520.81C884.429,1524.88 884.916,1530.23 884.794,1536.3C884.603,1545.82 882.739,1556.95 883.569,1568.39C884.886,1586.54 890.719,1599.45 900.471,1614.43C901.63,1616.21 903.972,1616.69 905.698,1615.49C907.423,1614.29 907.883,1611.88 906.723,1610.1C897.758,1596.33 892.291,1584.49 891.08,1567.81C890.269,1556.64 892.138,1545.76 892.325,1536.46C892.486,1528.4 891.369,1521.42 887.277,1516.02C883.235,1510.69 876.175,1506.7 863.782,1505.23C861.717,1504.99 859.848,1506.52 859.61,1508.65C859.372,1510.78 860.855,1512.71 862.92,1512.95Z" style="fill:rgb(33,50,91);"/>
        <path d="M929.395,1551.29C937.294,1548.96 942.074,1549.03 944.893,1551.61C947.693,1554.17 948.212,1558.72 948.358,1563.92C948.576,1571.65 947.495,1580.73 947.675,1588.78C947.81,1594.85 948.684,1600.37 950.941,1604.6C953.888,1610.13 958.868,1613.82 964.764,1616.3C972.61,1619.6 982.123,1620.75 989.532,1622.12C991.578,1622.49 993.536,1621.09 993.903,1618.98C994.269,1616.86 992.905,1614.84 990.859,1614.46C985.011,1613.38 977.767,1612.5 971.215,1610.42C965.489,1608.6 960.246,1605.93 957.54,1600.86C955.798,1597.59 955.31,1593.28 955.205,1588.6C955.025,1580.53 956.106,1571.44 955.888,1563.7C955.671,1556.01 954.026,1549.58 949.89,1545.79C945.772,1542.03 938.866,1540.41 927.326,1543.81C925.327,1544.4 924.168,1546.55 924.739,1548.62C925.31,1550.68 927.396,1551.88 929.395,1551.29Z" style="fill:rgb(33,50,91);"/>
        <path d="M968.427,1656.36C974.199,1654.15 978.748,1654.21 982.254,1656.21C987.825,1659.39 990.566,1666.86 991.803,1675.52C993.893,1690.15 991.584,1719.97 998.829,1739.18C1001.54,1746.37 1005.56,1752.16 1011.28,1755.62C1017,1759.08 1024.49,1760.31 1034.38,1757.89C1036.41,1757.4 1037.66,1755.3 1037.18,1753.22C1036.7,1751.13 1034.67,1749.84 1032.65,1750.33C1025.14,1752.16 1019.43,1751.54 1015.09,1748.92C1008.39,1744.86 1005.12,1736.42 1003.18,1726.75C999.571,1708.72 1000.97,1686.36 999.255,1674.38C997.627,1663 993.232,1653.6 985.902,1649.41C980.807,1646.5 974.197,1645.86 965.807,1649.08C963.858,1649.82 962.863,1652.06 963.586,1654.07C964.309,1656.08 966.478,1657.11 968.427,1656.36Z" style="fill:rgb(33,50,91);"/>
        <path d="M1009.1,1603.78C1023.04,1602.35 1035.46,1606.14 1044.81,1617.06C1049.03,1621.99 1052.15,1631.86 1056.61,1638.86C1060.02,1644.22 1064.22,1648 1069.43,1648.63C1072.92,1649.05 1077,1648.11 1081.76,1644.83C1085.46,1642.29 1086.38,1641.35 1089.05,1638.89C1090.6,1637.46 1090.73,1635 1089.34,1633.4C1087.95,1631.8 1085.57,1631.67 1084.02,1633.1C1081.66,1635.28 1080.86,1636.12 1077.58,1638.37C1074.74,1640.32 1072.39,1641.16 1070.3,1640.91C1067.16,1640.53 1064.96,1637.82 1062.9,1634.59C1058.25,1627.28 1054.86,1617.06 1050.45,1611.91C1039.41,1599.02 1024.82,1594.36 1008.35,1596.04C1006.28,1596.25 1004.77,1598.16 1004.98,1600.29C1005.18,1602.43 1007.03,1603.99 1009.1,1603.78Z" style="fill:rgb(33,50,91);"/>
        <path d="M1018.22,1567.17C1022.03,1562.17 1028.38,1558.24 1035.19,1556.46C1041.81,1554.72 1048.9,1554.99 1054.47,1558.67C1060.84,1562.87 1064.98,1569.19 1071.64,1572.95C1078.31,1576.72 1087.4,1576.11 1094.88,1576.55C1096.95,1576.67 1098.73,1575.03 1098.85,1572.88C1098.97,1570.74 1097.38,1568.91 1095.3,1568.79C1088.88,1568.41 1081,1569.38 1075.25,1566.13C1068.75,1562.46 1064.75,1556.22 1058.53,1552.12C1051.24,1547.31 1041.99,1546.65 1033.33,1548.92C1024.87,1551.14 1017.03,1556.15 1012.3,1562.38C1011.01,1564.06 1011.3,1566.51 1012.94,1567.83C1014.57,1569.16 1016.94,1568.86 1018.22,1567.17Z" style="fill:rgb(33,50,91);"/>
        <path d="M994.187,1476.76C1020.94,1476.42 1046.11,1501.33 1051.5,1527.17C1051.94,1529.27 1053.94,1530.61 1055.97,1530.15C1058.01,1529.7 1059.3,1527.63 1058.86,1525.54C1052.79,1496.42 1024.24,1468.6 994.094,1468.98C992.016,1469.01 990.349,1470.77 990.375,1472.92C990.4,1475.06 992.108,1476.78 994.187,1476.76Z" style="fill:rgb(33,50,91);"/>
        <path d="M933.557,1398.25C942.661,1402.95 948.31,1411.37 951.915,1421.12C957.673,1436.71 958.27,1455.68 958.305,1470C958.316,1474.21 957.778,1478.74 957.689,1483.21C957.587,1488.32 958.066,1493.34 960.11,1497.88C960.986,1499.82 963.228,1500.67 965.113,1499.77C966.998,1498.86 967.817,1496.55 966.941,1494.6C965.379,1491.13 965.142,1487.27 965.22,1483.38C965.31,1478.84 965.848,1474.25 965.838,1469.98C965.8,1454.85 965.037,1434.82 958.953,1418.35C954.664,1406.74 947.759,1396.89 936.928,1391.29C935.069,1390.33 932.804,1391.11 931.874,1393.03C930.944,1394.95 931.698,1397.29 933.557,1398.25Z" style="fill:rgb(33,50,91);"/>
        <path d="M946.923,1385.02C951.818,1385.55 957.178,1385.68 962.3,1386.55C966.81,1387.31 971.144,1388.63 974.619,1391.67C981.711,1397.87 985.078,1406.24 989.686,1412.7C995.164,1420.39 1002.01,1425.91 1015.97,1424.47C1018.04,1424.26 1019.55,1422.35 1019.35,1420.22C1019.14,1418.09 1017.29,1416.53 1015.22,1416.74C1010.24,1417.25 1006.46,1416.65 1003.44,1415.18C998.789,1412.92 995.974,1408.71 993.144,1404.11C989.366,1397.97 985.668,1391.14 979.487,1385.74C974.961,1381.78 969.392,1379.87 963.517,1378.88C958.255,1377.99 952.749,1377.84 947.719,1377.29C945.652,1377.06 943.796,1378.61 943.576,1380.74C943.356,1382.87 944.856,1384.79 946.923,1385.02Z" style="fill:rgb(33,50,91);"/>
        <path d="M878.409,1379.64C881.242,1391.17 886.326,1408.87 887.797,1425.21C888.714,1435.39 888.302,1445.03 884.623,1452.01C880.224,1460.35 871.06,1466.48 864.488,1473.13C863.004,1474.63 862.981,1477.1 864.437,1478.63C865.893,1480.16 868.279,1480.18 869.763,1478.68C876.841,1471.51 886.501,1464.7 891.238,1455.72C895.533,1447.58 896.368,1436.38 895.297,1424.49C893.788,1407.72 888.617,1389.56 885.711,1377.73C885.2,1375.65 883.15,1374.39 881.135,1374.92C879.12,1375.45 877.899,1377.56 878.409,1379.64Z" style="fill:rgb(33,50,91);"/>
        <path d="M871.771,1289.57C862.276,1310.93 862.107,1334.77 861.112,1358.19C860.17,1380.38 858.498,1402.2 845.951,1420.82C844.765,1422.58 845.187,1425.01 846.893,1426.23C848.6,1427.45 850.949,1427.02 852.136,1425.26C865.52,1405.39 867.632,1382.2 868.637,1358.53C869.589,1336.11 869.529,1313.26 878.617,1292.81C879.484,1290.86 878.654,1288.55 876.764,1287.66C874.875,1286.77 872.637,1287.62 871.771,1289.57Z" style="fill:rgb(33,50,91);"/>
        <path d="M825.054,1326.21C813.636,1334.25 809.746,1346.18 808.928,1359.12C808.179,1370.98 810.075,1383.68 810.277,1394.44C810.577,1410.45 806.262,1422.28 795.008,1433.41C793.507,1434.89 793.456,1437.36 794.894,1438.9C796.332,1440.45 798.718,1440.51 800.219,1439.02C813.144,1426.24 818.153,1412.68 817.808,1394.29C817.61,1383.73 815.709,1371.27 816.444,1359.63C817.111,1349.08 819.988,1339.19 829.302,1332.63C831.018,1331.42 831.46,1329 830.288,1327.23C829.116,1325.45 826.77,1325 825.054,1326.21Z" style="fill:rgb(33,50,91);"/>
        <path d="M808.659,1449.11C798.554,1465.54 799.991,1483.91 802.893,1502.62C805.556,1519.8 809.499,1537.25 804.655,1553.48C804.043,1555.53 805.159,1557.71 807.145,1558.34C809.132,1558.97 811.241,1557.82 811.853,1555.77C817.032,1538.42 813.177,1519.75 810.331,1501.4C807.724,1484.59 805.942,1468.03 815.019,1453.27C816.133,1451.46 815.612,1449.06 813.857,1447.91C812.102,1446.76 809.773,1447.29 808.659,1449.11Z" style="fill:rgb(33,50,91);"/>
        <path d="M787.126,1705.6C795.668,1719.57 800.84,1737.05 794.666,1752.94C792.884,1757.52 790.175,1761.69 787.638,1765.94C784.786,1770.71 782.144,1775.58 780.817,1781C776.907,1796.98 777.476,1822.05 782.707,1837.76C783.383,1839.79 785.527,1840.87 787.493,1840.17C789.459,1839.47 790.506,1837.26 789.831,1835.23C785.008,1820.75 784.515,1797.64 788.12,1782.9C789.259,1778.25 791.603,1774.12 794.05,1770.02C796.813,1765.4 799.717,1760.83 801.657,1755.83C808.74,1737.61 803.294,1717.47 793.496,1701.45C792.386,1699.64 790.058,1699.1 788.301,1700.24C786.543,1701.39 786.017,1703.79 787.126,1705.6Z" style="fill:rgb(33,50,91);"/>
        <path d="M857.586,1695.91C877.565,1708.71 878.276,1727.15 874.756,1746.6C870.88,1768.03 862.173,1790.71 864.25,1809.75C864.483,1811.88 866.348,1813.41 868.414,1813.17C870.48,1812.93 871.968,1811.01 871.735,1808.88C869.732,1790.52 878.423,1768.69 882.16,1748.03C886.254,1725.4 884.794,1704.19 861.558,1689.3C859.792,1688.17 857.468,1688.73 856.372,1690.56C855.276,1692.38 855.819,1694.78 857.586,1695.91Z" style="fill:rgb(33,50,91);"/>
        <path d="M910.447,1700.54C913.333,1699.02 915.671,1698.18 917.586,1697.99C918.746,1697.88 919.663,1698.01 920.343,1698.52C921.085,1699.09 921.509,1700.01 921.845,1701.08C922.35,1702.68 922.568,1704.6 922.64,1706.67C922.859,1713.07 921.633,1720.8 920.966,1726.75C919.497,1739.83 916.858,1754.92 921.556,1767.7C924.934,1776.89 932.36,1784.12 941.53,1789.13C954.766,1796.36 971.589,1798.95 983.914,1796.75C985.962,1796.38 987.337,1794.37 986.982,1792.26C986.628,1790.14 984.677,1788.72 982.629,1789.09C971.698,1791.04 956.792,1788.67 945.054,1782.26C937.575,1778.17 931.354,1772.44 928.599,1764.95C924.32,1753.31 927.111,1739.55 928.448,1727.64C929.154,1721.35 930.399,1713.16 930.167,1706.39C929.95,1700.06 928.236,1694.88 924.82,1692.27C921.414,1689.67 915.796,1689 907.029,1693.61C905.177,1694.58 904.438,1696.92 905.382,1698.84C906.325,1700.75 908.594,1701.51 910.447,1700.54Z" style="fill:rgb(33,50,91);"/>
        <path d="M739.051,1716.92C728.248,1716.83 721.118,1722.08 715.364,1729.7C711.9,1734.29 708.951,1739.77 705.902,1745.31C699.12,1757.63 691.977,1770.58 674.959,1771.51C672.883,1771.62 671.287,1773.46 671.398,1775.6C671.509,1777.74 673.284,1779.39 675.359,1779.27C695.428,1778.17 704.453,1763.68 712.451,1749.15C715.314,1743.95 718.054,1738.79 721.305,1734.48C725.625,1728.76 730.878,1724.62 738.987,1724.7C741.065,1724.72 742.767,1722.99 742.785,1720.84C742.803,1718.7 741.13,1716.94 739.051,1716.92Z" style="fill:rgb(33,50,91);"/>
        <path d="M689.322,1638.86C680.316,1637.63 674.073,1641.69 669.368,1647.87C665.291,1653.23 662.462,1660.3 659.831,1666.21C650.997,1686.04 638.507,1707.17 613.68,1697.84C611.727,1697.11 609.564,1698.15 608.852,1700.16C608.141,1702.18 609.149,1704.41 611.102,1705.15C640.433,1716.17 656.239,1692.88 666.675,1669.45C669.076,1664.06 671.571,1657.56 675.292,1652.67C678.386,1648.61 682.414,1645.76 688.337,1646.56C690.398,1646.84 692.291,1645.34 692.563,1643.22C692.835,1641.09 691.382,1639.14 689.322,1638.86Z" style="fill:rgb(33,50,91);"/>
        <path d="M732.001,1455.24C711.326,1442.09 694.928,1451.3 680.794,1466.67C668.068,1480.51 657.349,1499.55 646.552,1508.3C633.762,1518.67 619.027,1520.19 603.443,1523.21C601.4,1523.6 600.052,1525.63 600.435,1527.74C600.818,1529.85 602.788,1531.24 604.831,1530.85C621.637,1527.6 637.412,1525.59 651.205,1514.41C662.224,1505.48 673.27,1486.15 686.258,1472.02C697.841,1459.43 711.105,1451.08 728.048,1461.86C729.817,1462.98 732.14,1462.41 733.23,1460.59C734.321,1458.76 733.77,1456.37 732.001,1455.24Z" style="fill:rgb(33,50,91);"/>
        <path d="M733.563,1410.18C724.153,1412.36 714.697,1411.93 705.219,1411.44C695.12,1410.92 684.997,1410.32 674.869,1412.17C646.441,1417.38 619.499,1430.2 590.581,1432.48C588.508,1432.64 586.954,1434.51 587.112,1436.65C587.271,1438.79 589.082,1440.39 591.155,1440.23C620.321,1437.93 647.513,1425.08 676.185,1419.83C685.747,1418.07 695.307,1418.71 704.842,1419.21C714.998,1419.73 725.127,1420.1 735.21,1417.77C737.239,1417.3 738.516,1415.22 738.062,1413.12C737.607,1411.03 735.591,1409.71 733.563,1410.18Z" style="fill:rgb(33,50,91);"/>
        <path d="M806.981,1307.82C799.928,1304.92 792.246,1305.35 784.823,1306.37C774.473,1307.78 763.85,1309.88 755.153,1316.08C745.645,1322.86 738.831,1331.04 731.765,1338.04C722.147,1347.56 711.982,1354.66 692.093,1351.23C690.043,1350.87 688.1,1352.3 687.756,1354.42C687.413,1356.53 688.798,1358.54 690.848,1358.89C713.964,1362.89 725.803,1354.71 736.98,1343.64C743.778,1336.91 750.29,1329 759.436,1322.47C767.149,1316.97 776.634,1315.33 785.813,1314.07C791.965,1313.23 798.344,1312.63 804.188,1315.04C806.119,1315.84 808.312,1314.87 809.082,1312.87C809.853,1310.88 808.911,1308.62 806.981,1307.82Z" style="fill:rgb(33,50,91);"/>
        <path d="M827.516,1264.04C824.172,1260.91 819.519,1260.79 814.692,1262.67C809.305,1264.76 803.662,1269.32 800.877,1271.44C793.61,1276.95 784.951,1284.44 775.575,1289.68C766.972,1294.48 757.755,1297.44 748.504,1294.3C746.53,1293.63 744.4,1294.75 743.751,1296.78C743.103,1298.82 744.18,1301.02 746.155,1301.69C755.245,1304.77 764.342,1303.33 773.024,1299.57C785.051,1294.35 796.265,1284.59 805.341,1277.7C807.773,1275.85 812.643,1271.77 817.348,1269.94C819.262,1269.2 821.131,1268.56 822.457,1269.8C823.997,1271.24 826.381,1271.12 827.777,1269.53C829.173,1267.94 829.056,1265.48 827.516,1264.04Z" style="fill:rgb(33,50,91);"/>
        <path d="M856.613,1178.24C848.668,1182.73 844.3,1187.94 842.204,1193.43C840.076,1199.01 840.265,1204.99 841.866,1211.14C844.669,1221.9 852.02,1233.29 856.274,1243.65C861.603,1256.63 861.947,1272.33 856.843,1285.44C856.069,1287.43 857.006,1289.69 858.935,1290.49C860.863,1291.29 863.058,1290.33 863.833,1288.34C869.661,1273.36 869.295,1255.44 863.21,1240.62C859.864,1232.47 854.536,1223.69 851.129,1215.08C848.469,1208.36 846.898,1201.79 849.396,1195.82C851.05,1191.87 854.482,1188.31 860.226,1185.07C862.05,1184.04 862.722,1181.67 861.725,1179.79C860.727,1177.91 858.437,1177.21 856.613,1178.24Z" style="fill:rgb(33,50,91);"/>
        <path d="M908.199,1312.59C909.145,1306.72 910.961,1301.7 913.952,1296.58C916.285,1292.58 919.095,1288.28 922.714,1285.33C929.154,1280.1 934.886,1277.77 940.244,1277.53C948.425,1277.16 955.578,1281.55 962.718,1286.83C969.353,1291.73 975.926,1297.47 982.98,1301.82C990.614,1306.53 998.799,1309.63 1008.09,1308.89C1010.16,1308.73 1011.72,1306.85 1011.56,1304.72C1011.39,1302.58 1009.58,1300.98 1007.51,1301.14C999.847,1301.75 993.14,1299.03 986.844,1295.15C979.968,1290.9 973.574,1285.29 967.105,1280.51C958.52,1274.16 949.753,1269.32 939.916,1269.76C933.263,1270.06 926.051,1272.73 918.054,1279.23C913.735,1282.74 910.286,1287.8 907.501,1292.57C904,1298.56 901.877,1304.44 900.768,1311.31C900.427,1313.43 901.814,1315.43 903.865,1315.78C905.915,1316.14 907.857,1314.7 908.199,1312.59Z" style="fill:rgb(33,50,91);"/>
        <path d="M895.196,1168.76C909.601,1164.61 919.212,1170.72 927.812,1179.21C937.557,1188.83 946.161,1201.29 957.651,1208.24C972.424,1217.17 990.782,1211.7 1005.47,1205.71C1007.4,1204.92 1008.35,1202.66 1007.59,1200.67C1006.82,1198.67 1004.63,1197.69 1002.7,1198.48C990.018,1203.65 974.216,1209.24 961.458,1201.53C950.457,1194.88 942.35,1182.81 933.02,1173.59C922.545,1163.25 910.718,1156.22 893.173,1161.27C891.17,1161.84 889.998,1163.99 890.556,1166.06C891.114,1168.12 893.193,1169.33 895.196,1168.76Z" style="fill:rgb(33,50,91);"/>
        <path d="M797.546,1168.27C782.532,1158.99 771.792,1171.31 766.691,1185.96C763.482,1195.17 760.868,1204.29 757.087,1212.11C751.87,1222.9 744.294,1231.04 728.954,1232.75C726.888,1232.98 725.391,1234.9 725.615,1237.04C725.839,1239.17 727.698,1240.71 729.765,1240.48C748.314,1238.41 757.519,1228.63 763.828,1215.58C767.731,1207.51 770.465,1198.1 773.779,1188.59C777.232,1178.67 783.514,1168.66 793.677,1174.94C795.46,1176.04 797.775,1175.44 798.843,1173.6C799.911,1171.76 799.33,1169.37 797.546,1168.27Z" style="fill:rgb(33,50,91);"/>
        <path d="M794.806,1156.3C790.892,1146.28 786.724,1133.65 780.448,1122.96C773.709,1111.49 764.566,1102.27 751.199,1099.91C738.778,1097.72 725.24,1099.33 711.99,1099.73C699.744,1100.1 687.737,1099.46 677.324,1092.78C675.559,1091.65 673.235,1092.21 672.138,1094.03C671.041,1095.85 671.583,1098.25 673.349,1099.38C685.04,1106.88 698.462,1107.91 712.211,1107.5C724.957,1107.11 737.98,1105.47 749.929,1107.58C761.028,1109.54 768.411,1117.47 774.007,1127C780.066,1137.31 784.04,1149.53 787.819,1159.21C788.595,1161.2 790.791,1162.16 792.719,1161.36C794.647,1160.56 795.582,1158.29 794.806,1156.3Z" style="fill:rgb(33,50,91);"/>
        <path d="M914.189,1113.34C915.529,1105.45 920.827,1098.02 927.684,1092.73C934.554,1087.43 943.047,1084.23 950.994,1085.12C956.752,1085.77 961.885,1088.34 967.116,1090.77C973.115,1093.57 979.222,1096.23 986.176,1096.69C996.963,1097.42 1008.1,1092.46 1017.12,1087.1C1018.92,1086.03 1019.54,1083.65 1018.5,1081.8C1017.46,1079.94 1015.16,1079.3 1013.36,1080.37C1005.55,1085.01 995.998,1089.56 986.664,1088.94C980.65,1088.54 975.405,1086.11 970.217,1083.69C964.259,1080.91 958.367,1078.13 951.81,1077.4C942.069,1076.3 931.594,1080.01 923.173,1086.51C914.737,1093.02 908.418,1102.29 906.769,1112C906.411,1114.11 907.782,1116.12 909.829,1116.5C911.877,1116.87 913.83,1115.45 914.189,1113.34Z" style="fill:rgb(33,50,91);"/>
        <path d="M921.184,1068.07C937.89,1055.93 957.453,1043.02 978.785,1042.18C989.117,1041.78 996.491,1043.99 1003.15,1045.38C1014.48,1047.76 1024.02,1048.31 1040.24,1033.95C1041.82,1032.56 1042,1030.1 1040.65,1028.47C1039.3,1026.84 1036.92,1026.66 1035.34,1028.05C1021.88,1039.95 1014.05,1039.74 1004.66,1037.77C997.507,1036.27 989.585,1033.98 978.499,1034.41C955.719,1035.31 934.685,1048.75 916.846,1061.72C915.147,1062.95 914.739,1065.38 915.936,1067.13C917.133,1068.89 919.484,1069.31 921.184,1068.07Z" style="fill:rgb(33,50,91);"/>
        <path d="M918.915,989.485C920.149,967.941 941.032,951.733 960.433,946.598C968.72,944.405 978.65,942.597 987.45,939.051C997.072,935.173 1005.34,929.236 1009.43,919.142C1010.24,917.163 1009.33,914.884 1007.42,914.056C1005.5,913.227 1003.29,914.161 1002.49,916.14C999.213,924.209 992.401,928.711 984.71,931.81C976.196,935.241 966.579,936.947 958.562,939.069C936.24,944.976 912.816,964.239 911.396,989.026C911.273,991.167 912.859,993.009 914.934,993.135C917.009,993.262 918.793,991.626 918.915,989.485Z" style="fill:rgb(33,50,91);"/>
        <path d="M896.496,952.524C894.251,946.064 897.001,939.748 901.373,933.84C909.006,923.524 921.764,914.549 928.82,908.524C937.801,900.856 944.669,887.686 935.415,876.899C934.037,875.293 931.655,875.144 930.099,876.566C928.542,877.988 928.398,880.446 929.775,882.052C933.168,886.006 932.688,890.452 930.687,894.379C929.103,897.486 926.624,900.31 924.019,902.535C916.636,908.839 903.373,918.329 895.386,929.122C889.343,937.289 886.303,946.218 889.406,955.147C890.107,957.166 892.265,958.218 894.222,957.494C896.179,956.77 897.198,954.543 896.496,952.524Z" style="fill:rgb(33,50,91);"/>
        <path d="M796.981,1014.76C788.694,1007.32 780.468,998.408 769.739,994.544C758.36,990.446 744.464,991.371 729.866,994.11C709.255,997.977 687.17,1005.45 669.363,1005.32C667.285,1005.31 665.585,1007.04 665.571,1009.18C665.556,1011.33 667.232,1013.08 669.311,1013.1C684.563,1013.21 702.885,1007.99 720.826,1003.93C737.736,1000.11 754.287,997.212 767.257,1001.88C777.08,1005.42 784.449,1013.81 792.036,1020.62C793.604,1022.03 795.985,1021.86 797.35,1020.24C798.714,1018.62 798.549,1016.17 796.981,1014.76Z" style="fill:rgb(33,50,91);"/>
        <path d="M824.729,956.919C812.071,947.988 798.229,932.407 792.365,918.11C790.724,914.108 789.864,909.356 788.632,904.786C787.187,899.425 785.24,894.318 781.683,890.443C780.253,888.886 777.868,888.819 776.359,890.294C774.85,891.769 774.785,894.231 776.215,895.789C778.942,898.759 780.268,902.759 781.375,906.869C782.696,911.769 783.668,916.849 785.428,921.14C791.793,936.658 806.738,953.641 820.478,963.336C822.193,964.546 824.539,964.092 825.712,962.321C826.886,960.55 826.445,958.13 824.729,956.919Z" style="fill:rgb(33,50,91);"/>
        <path d="M857.873,958.129C852.289,956.066 850.619,951.955 850.551,947.224C850.465,941.195 852.532,934.352 853.783,928.421C857.821,909.275 857.187,895.669 843.855,880.647C842.452,879.065 840.067,878.957 838.534,880.405C837.001,881.854 836.897,884.314 838.3,885.896C849.684,898.724 849.87,910.419 846.423,926.768C845.056,933.249 842.925,940.75 843.019,947.339C843.132,955.227 846.021,962.006 855.334,965.447C857.291,966.171 859.449,965.118 860.15,963.099C860.85,961.079 859.83,958.852 857.873,958.129Z" style="fill:rgb(33,50,91);"/>
    </g>
    <defs>
        <radialGradient id="_Radial1" cx="0" cy="0" r="1" gradientUnits="userSpaceOnUse" gradientTransform="matrix(6561.63,2448.68,-2448.68,6561.63,3573.37,2626.32)"><stop offset="0" style="stop-color:rgb(55,125,255);stop-opacity:1"/><stop offset="1" style="stop-color:rgb(33,50,91);stop-opacity:1"/></radialGradient>
        <radialGradient id="_Radial2" cx="0" cy="0" r="1" gradientUnits="userSpaceOnUse" gradientTransform="matrix(821.778,-1062.36,1062.36,821.778,864.112,1307.42)"><stop offset="0" style="stop-color:rgb(0,168,193);stop-opacity:1"/><stop offset="1" style="stop-color:rgb(28,51,94);stop-opacity:1"/></radialGradient>
    </defs>
</svg>
